<svg xmlns="http://www.w3.org/2000/svg" xmlns:xlink="http://www.w3.org/1999/xlink" buffered-rendering="static" width="30px" height="20px" viewBox="0,0,30,20" shape-rendering="crispEdges">
<desc>
This file was created by http://www.h2.dion.ne.jp/~defghi/img2svg3/dot2svg3.htm at Sun Nov 03 2019 14:12:31 GMT+0100 (Mitteleuropäische Normalzeit)
path count:2
</desc>
<defs>
<g id="dots">
<path d="m0,0h30v18h-4v-2h-4v-5h-4v-1h-2v-3h-6v2h4v1h-4v2h4v1h-14zm0,14h14v1h-4v3h4v1h2v1h-16zm14,2h4v1h4v2h6v1h-10v-3h-4z" opacity="0"/>
<path d="m10,7h6v3h2v1h4v5h4v2h4v2h-2v-1h-6v-2h-4v3h-2v-1h-2v-1h-4v-3h4v-1h-14v-1h14v-1h-4v-2h4v-1h-4zm5,9h-1v1h4v-1z"/>
</g>
</defs>
<use xlink:href="#dots"/>
</svg>