<svg xmlns="http://www.w3.org/2000/svg" xmlns:xlink="http://www.w3.org/1999/xlink" buffered-rendering="static" width="30px" height="20px" viewBox="0,0,30,20" shape-rendering="crispEdges">
<desc>
This file was created by http://www.h2.dion.ne.jp/~defghi/img2svg3/dot2svg3.htm at Sun Nov 03 2019 13:00:15 GMT+0100 (Mitteleuropäische Normalzeit)
path count:2
</desc>
<defs>
<g id="dots">
<path d="m0,0h30v20h-7v-1h-2v-2h-2v-3h-2v-1h2v-1h2v3h2v-14h-2v9h-2v-2h-2v-5h-2v-1h-4v2h4v1h-4v2h2v1h-2v1h-2v3h2v1h2v1h-2v2h-2v3h-2v1h-7zm8,12h-1v2h2v-2zm5,4h4v2h2v2h-8v-3h2z" opacity="0"/>
<path d="m21,1h2v14h-2v-3h-2v1h-2v1h2v3h2v2h2v1h-4v-2h-2v-2h-4v1h-2v3h-4v-1h2v-3h2v-2h2v-1h-2v-1h-2v2h-2v-2h2v-3h2v-1h2v-1h-2v-2h4v-1h-4v-2h4v1h2v5h2v2h2z"/>
</g>
</defs>
<use xlink:href="#dots"/>
</svg>